<svg xmlns="http://www.w3.org/2000/svg" viewBox="0 0 166.17 95.69"><defs><style>.a{fill:#8b1f41;}.b{fill:#41797d;}.c{fill:#94c9cb;}.d{fill:#919393;}</style></defs><title>Studios_up1803-RGB</title><path class="a" d="M73.16,53A35.41,35.41,0,0,0,67,50.74c-.42-.11-.85-.22-1.3-.32s-.85-.19-1.29-.27L63.6,50l-.54-.09-.57-.08a34.5,34.5,0,0,0-4.79-.34h-.22c-.71,0-1.42,0-2.12.09l-.81.07c-.29,0-.56.05-.84.09l-.87.12-.77.13h0l-.75.14-.2,0-1,.22a31.43,31.43,0,0,0-8.43,3.41c-.6.36-1.2.73-1.79,1.12-.33.22-.65.44-1,.67l-1,.73a48.49,48.49,0,0,0-11.38,13,28.64,28.64,0,0,1-10-20.44A121.49,121.49,0,0,1,30.2,46.24c2.82-.39,6.09-.74,9.74-1,.74-.05,1.49-.1,2.26-.13s1.43-.06,2.16-.09l1.24,0h1.34c3-.05,6.07,0,9.33.15h.18l.57,0h.17l.42,0h.21l.36,0,.54,0,.51,0q3.62.26,7.42.72l.86.11.94.13c1.72.24,3.46.51,5.23.83A29,29,0,0,1,73.16,53Z"/><path class="a" d="M64.53,26.63A21.13,21.13,0,0,1,53.15,34.8c-11.81,3.07-23.09-4-27.94-7.66A28.21,28.21,0,0,1,32.51,22a28.88,28.88,0,0,1,7.13-2.42c2.25,4.89,6.36,12.1,11.07,12.1a4.37,4.37,0,0,0,1.13-.14c3.8-.94,5.18-5.42,5.6-9.69A28.59,28.59,0,0,1,64.53,26.63Z"/><path class="b" d="M68.19,64.42A28.66,28.66,0,0,1,47.75,76c-.11-.42-3.76-14.52,4.81-24.52q.28-.33.57-.63a32.26,32.26,0,0,1,4.31-.34h.26A34.15,34.15,0,0,1,62,50.8a8.5,8.5,0,0,0-.75,3.06,10.39,10.39,0,0,0,3,7.56A14.48,14.48,0,0,0,68.19,64.42Z"/><path class="b" d="M73.42,43.73a24.72,24.72,0,0,0-5.1,1.5q-3.18-.43-6.22-.71a30.19,30.19,0,0,1,6.82-2H69c1.22-.19,2.31-.31,3.21-.38h0c.56,0,.89,0,.94,0C73.26,42.62,73.34,43.17,73.42,43.73Z"/><path class="c" d="M72,38a37.73,37.73,0,0,0-14.47,6.21c-3.39-.2-6.63-.26-9.7-.23A76.6,76.6,0,0,1,66.5,28.65,28.31,28.31,0,0,1,70.73,35,28,28,0,0,1,72,38Z"/><path class="c" d="M72.34,56.2a28.48,28.48,0,0,1-3.44,7.19,59.32,59.32,0,0,0-4.54-5.87C63.67,56.73,63,56,62.3,55.31a8.16,8.16,0,0,1-.06-1.4A7.44,7.44,0,0,1,63,51a35.43,35.43,0,0,1,3.6.76C69.1,53.53,71.06,55.12,72.34,56.2Z"/><path class="c" d="M46.39,76.1a28.57,28.57,0,0,1-13.76-2.86A67.48,67.48,0,0,1,38.76,57a32.93,32.93,0,0,1,3.45-2.31,30.72,30.72,0,0,1,8.18-3.32C45.79,58.1,44.41,66.6,46.39,76.1Z"/><path class="c" d="M48.8,41.39c-.8.84-1.57,1.7-2.32,2.57-2.29,0-4.47.14-6.54.27a68.3,68.3,0,0,0-10.6-.87A41.23,41.23,0,0,0,16.7,45.1a28.55,28.55,0,0,1,4.23-12.66A218.12,218.12,0,0,1,46.84,40.6C47.5,40.85,48.15,41.11,48.8,41.39Z"/><path class="a" d="M85.22,27.59H89c3.54,0,4.9,1.7,4.9,4.83v5.33c0,3.29-1.38,4.83-4.84,4.83H85.22Zm2.35,2V40.54h1.5c1.63,0,2.61-.87,2.61-2.89V32.52c0-2-.92-2.89-2.67-2.89Z"/><path class="a" d="M94.88,42.58l3.73-15h2.77l3.71,15h-2.35L102,39.33H98l-.73,3.25Zm3.57-5.39h3.08L100,30.31Z"/><path class="a" d="M107.55,42.58v-13h-3.06v-2h8.45v2h-3v13Z"/><path class="a" d="M112.34,42.58l3.73-15h2.77l3.7,15h-2.35l-.73-3.25h-4l-.73,3.25Zm3.56-5.39H119l-1.52-6.88Z"/><path class="a" d="M135.06,27.59l-3.54,15H129l-3.54-15h2.33l2.48,11.62,2.48-11.62Z"/><path class="a" d="M136.62,42.58v-15H139v15Z"/><path class="a" d="M145.62,30.5l.65-.89H141v-2h7.79v1.7l-4.86,10.33-.66.94h5.85v2h-8.46V40.87Z"/><path class="d" d="M92.74,58.61c0,2.54-1.27,3.62-3.58,3.62h-1c-2.15,0-3.34-.85-3.34-3V57.46h1.59v1.35c0,1.61.58,2,1.81,2h.83c1.25,0,2-.22,2-2.18V57.46a2,2,0,0,0-1.72-2.25l-1.8-.44c-1.7-.39-2.54-1.12-2.54-3.54v-1c0-2.25,1.19-3.43,3.38-3.43h.41c2.15,0,3.48,1.1,3.48,3V51.5H90.76V50.17a1.72,1.72,0,0,0-1.92-2h-.37c-1.23,0-1.81.52-1.81,2.17v.75c0,1.52.27,1.85,1.5,2.19l1.68.41c2.19.59,2.9,1.63,2.9,3.75Z"/><path class="d" d="M96.8,62V48.46H93.53V47h8.19v1.43H98.47V62Z"/><path class="d" d="M111.44,47v11.7c0,2.21-1.58,3.5-4.1,3.5s-4.1-1.29-4.1-3.5V47h1.64V58.27a2.46,2.46,0,1,0,4.92,0V47Z"/><path class="d" d="M114.17,47h3.21c3.48,0,4.83,1.62,4.83,4.77v5.45c0,3.19-1.33,4.77-4.71,4.77h-3.33Zm1.67,1.43V60.58h1.66c2,0,3.13-1,3.13-3.37V51.84c0-2.36-1-3.38-3.25-3.38Z"/><path class="d" d="M124.77,62V47h1.67V62Z"/><path class="d" d="M137.54,50.27v8.5c0,2.19-1.54,3.46-4.21,3.46s-4.25-1.27-4.25-3.46v-8.5c0-2.18,1.57-3.45,4.25-3.45S137.54,48.09,137.54,50.27Zm-6.79.46v7.58c0,1.77.79,2.48,2.58,2.48s2.56-.71,2.56-2.48V50.73c0-1.77-.81-2.48-2.56-2.48S130.75,49,130.75,50.73Z"/></svg>